HIERARCHY
ROOT Hips
{
  OFFSET 5.84602e-005 68.8428 3.50346
  CHANNELS 6 Xposition Yposition Zposition Zrotation Xrotation Yrotation
  JOINT Spine
  {
    OFFSET 0 8.597 -4.6522
    CHANNELS 3 Zrotation Xrotation Yrotation
    JOINT Spine1
    {
      OFFSET 0 7.8454 0.4098
      CHANNELS 3 Zrotation Xrotation Yrotation
      JOINT Spine2
      {
        OFFSET 0 9.7078 -2.1609
        CHANNELS 3 Zrotation Xrotation Yrotation
        JOINT Neck
        {
          OFFSET 0 21.8761 -0.4549
          CHANNELS 3 Zrotation Xrotation Yrotation
          JOINT Head
          {
            OFFSET 0 12.3537 3.3602
            CHANNELS 3 Zrotation Xrotation Yrotation
            End Site
            {
              OFFSET 0.0001 18.9506 0.5657
            }
          }
        }
        JOINT LeftShoulder
        {
          OFFSET 2.2086 21.1115 7.2329
          CHANNELS 3 Zrotation Xrotation Yrotation
          JOINT LeftArm
          {
            OFFSET 13.1193 3.0282 -4.8998
            CHANNELS 3 Zrotation Xrotation Yrotation
            JOINT LeftForeArm
            {
              OFFSET 27.4081 -0.0973053 -0.2375
              CHANNELS 3 Zrotation Xrotation Yrotation
              JOINT LeftHand
              {
                OFFSET 22.8641 0.0662994 -0.1369
                CHANNELS 3 Zrotation Xrotation Yrotation
                JOINT LeftHandIndex1
                {
                  OFFSET 8.8614 0.775009 2.4612
                  CHANNELS 3 Zrotation Xrotation Yrotation
                  JOINT LeftHandIndex2
                  {
                    OFFSET 3.3146 -0.808304 0.5841
                    CHANNELS 3 Zrotation Xrotation Yrotation
                    JOINT LeftHandIndex3
                    {
                      OFFSET 2.2628 -0.552002 0.3989
                      CHANNELS 3 Zrotation Xrotation Yrotation
                      End Site
                      {
                        OFFSET 1.6102 -0.4807 0.2612
                      }
                    }
                  }
                }
                JOINT LeftHandMiddle1
                {
                  OFFSET 8.9937 0.895004 0.2143
                  CHANNELS 3 Zrotation Xrotation Yrotation
                  JOINT LeftHandMiddle2
                  {
                    OFFSET 4.0984 0.0113983 -0.0242
                    CHANNELS 3 Zrotation Xrotation Yrotation
                    JOINT LeftHandMiddle3
                    {
                      OFFSET 2.2716 0.00689697 -0.0138001
                      CHANNELS 3 Zrotation Xrotation Yrotation
                      End Site
                      {
                        OFFSET 2.0404 -0.1441 0.0027
                      }
                    }
                  }
                }
                JOINT LeftHandRing1
                {
                  OFFSET 8.5234 0.597198 -2.0164
                  CHANNELS 3 Zrotation Xrotation Yrotation
                  JOINT LeftHandRing2
                  {
                    OFFSET 3.7188 -0.188293 -0.2328
                    CHANNELS 3 Zrotation Xrotation Yrotation
                    JOINT LeftHandRing3
                    {
                      OFFSET 2.1191 -0.106598 -0.1332
                      CHANNELS 3 Zrotation Xrotation Yrotation
                      End Site
                      {
                        OFFSET 1.8737 -0.2304 -0.0886
                      }
                    }
                  }
                }
                JOINT LeftHandPinky1
                {
                  OFFSET 7.9094 -0.601089 -3.4825
                  CHANNELS 3 Zrotation Xrotation Yrotation
                  JOINT LeftHandPinky2
                  {
                    OFFSET 2.2874 -0.477005 -0.6314
                    CHANNELS 3 Zrotation Xrotation Yrotation
                    JOINT LeftHandPinky3
                    {
                      OFFSET 1.6774 -0.349396 -0.4633
                      CHANNELS 3 Zrotation Xrotation Yrotation
                      End Site
                      {
                        OFFSET 1.4888 -0.4091 -0.3416
                      }
                    }
                  }
                }
                JOINT LeftHandThumb1
                {
                  OFFSET 1.833 -1.3875 1.3896
                  CHANNELS 3 Zrotation Xrotation Yrotation
                  JOINT LeftHandThumb2
                  {
                    OFFSET 3.4129 -1.121 2.5732
                    CHANNELS 3 Zrotation Xrotation Yrotation
                    JOINT LeftHandThumb3
                    {
                      OFFSET 2.2474 -0.804199 1.6192
                      CHANNELS 3 Zrotation Xrotation Yrotation
                      End Site
                      {
                        OFFSET 1.6527 -0.5689 1.1317
                      }
                    }
                  }
                }
              }
            }
          }
        }
        JOINT RightShoulder
        {
          OFFSET -2.2086 21.1115 7.2329
          CHANNELS 3 Zrotation Xrotation Yrotation
          JOINT RightArm
          {
            OFFSET -13.1216 3.0287 -4.9007
            CHANNELS 3 Zrotation Xrotation Yrotation
            JOINT RightForeArm
            {
              OFFSET -27.4081 -0.0973053 -0.2375
              CHANNELS 3 Zrotation Xrotation Yrotation
              JOINT RightHand
              {
                OFFSET -22.8641 0.0664063 -0.1369
                CHANNELS 3 Zrotation Xrotation Yrotation
                JOINT RightHandIndex1
                {
                  OFFSET -8.8614 0.774994 2.4612
                  CHANNELS 3 Zrotation Xrotation Yrotation
                  JOINT RightHandIndex2
                  {
                    OFFSET -3.3146 -0.808304 0.5841
                    CHANNELS 3 Zrotation Xrotation Yrotation
                    JOINT RightHandIndex3
                    {
                      OFFSET -2.2628 -0.552002 0.3989
                      CHANNELS 3 Zrotation Xrotation Yrotation
                      End Site
                      {
                        OFFSET -1.6102 -0.4807 0.2612
                      }
                    }
                  }
                }
                JOINT RightHandMiddle1
                {
                  OFFSET -8.9937 0.894989 0.2143
                  CHANNELS 3 Zrotation Xrotation Yrotation
                  JOINT RightHandMiddle2
                  {
                    OFFSET -4.0984 0.0113983 -0.0242
                    CHANNELS 3 Zrotation Xrotation Yrotation
                    JOINT RightHandMiddle3
                    {
                      OFFSET -2.2716 0.00691223 -0.0138001
                      CHANNELS 3 Zrotation Xrotation Yrotation
                      End Site
                      {
                        OFFSET -2.0404 -0.1441 0.0027
                      }
                    }
                  }
                }
                JOINT RightHandRing1
                {
                  OFFSET -8.5234 0.597198 -2.0164
                  CHANNELS 3 Zrotation Xrotation Yrotation
                  JOINT RightHandRing2
                  {
                    OFFSET -3.7188 -0.188309 -0.2328
                    CHANNELS 3 Zrotation Xrotation Yrotation
                    JOINT RightHandRing3
                    {
                      OFFSET -2.1191 -0.106598 -0.1332
                      CHANNELS 3 Zrotation Xrotation Yrotation
                      End Site
                      {
                        OFFSET -1.8737 -0.2304 -0.0886
                      }
                    }
                  }
                }
                JOINT RightHandPinky1
                {
                  OFFSET -7.9094 -0.601105 -3.4825
                  CHANNELS 3 Zrotation Xrotation Yrotation
                  JOINT RightHandPinky2
                  {
                    OFFSET -2.2874 -0.477005 -0.6314
                    CHANNELS 3 Zrotation Xrotation Yrotation
                    JOINT RightHandPinky3
                    {
                      OFFSET -1.6774 -0.349396 -0.4633
                      CHANNELS 3 Zrotation Xrotation Yrotation
                      End Site
                      {
                        OFFSET -1.4888 -0.4091 -0.3416
                      }
                    }
                  }
                }
                JOINT RightHandThumb1
                {
                  OFFSET -1.833 -1.38751 1.3896
                  CHANNELS 3 Zrotation Xrotation Yrotation
                  JOINT RightHandThumb2
                  {
                    OFFSET -3.41299 -1.12099 2.5732
                    CHANNELS 3 Zrotation Xrotation Yrotation
                    JOINT RightHandThumb3
                    {
                      OFFSET -2.24741 -0.804108 1.6192
                      CHANNELS 3 Zrotation Xrotation Yrotation
                      End Site
                      {
                        OFFSET -1.6527 -0.5689 1.1317
                      }
                    }
                  }
                }
              }
            }
          }
        }
      }
    }
  }
  JOINT RightUpLeg
  {
    OFFSET -9.1966 3.8861 -0.7581
    CHANNELS 3 Zrotation Xrotation Yrotation
    JOINT RightLeg
    {
      OFFSET -0.7359 -41.0265 0
      CHANNELS 3 Zrotation Xrotation Yrotation
      JOINT RightFoot
      {
        OFFSET 0 -40.2855 0
        CHANNELS 3 Zrotation Xrotation Yrotation
        JOINT RightToeBase
        {
          OFFSET 0 -5.6122 11.7359
          CHANNELS 3 Zrotation Xrotation Yrotation
          End Site
          {
            OFFSET 0 0 7.8731
          }
        }
      }
    }
  }
  JOINT LeftUpLeg
  {
    OFFSET 9.1965 3.8864 -0.7581
    CHANNELS 3 Zrotation Xrotation Yrotation
    JOINT LeftLeg
    {
      OFFSET 0.7359 -41.0268 0
      CHANNELS 3 Zrotation Xrotation Yrotation
      JOINT LeftFoot
      {
        OFFSET 0 -40.2855 0
        CHANNELS 3 Zrotation Xrotation Yrotation
        JOINT LeftToeBase
        {
          OFFSET 0 -5.6122 11.7359
          CHANNELS 3 Zrotation Xrotation Yrotation
          End Site
          {
            OFFSET 0 0 7.8731
          }
        }
      }
    }
  }
}
MOTION
Frames:	5
Frame Time:	0.0333333
5.84602e-005 68.8428 3.50346 0 0 -0 0 0 -0 0 0 -0 0 0 -0 0 0 -0 0 0 -0 0 0 -0 0 0 -0 0 0 -0 0 0 -0 0 0 -0 0 0 -0 0 0 -0 0 0 -0 -0.0146107 -8.87603e-005 -2.63497e-007 2.99804e-018 -2.42657e-020 -1.42182e-022 0 0 -0 -0.0187562 -0.001176 5.858e-005 5.06224e-018 3.88251e-019 1.21329e-020 0 0 -0 -0.012269 -0.00324817 0.000675346 -1.74678e-018 3.88251e-019 -0 0 0 -0 0 0 -0 0 0 -0 0 0 -0 0 0 -0 0 0 -0 0 0 -0 0 0 -0 0 0 -0 0 0 -0 0 0 -0 0.0149955 -9.10982e-005 2.64101e-007 -9.69331e-018 1.21329e-020 -4.7394e-023 0 0 -0 0.0189956 -0.00119102 -5.96516e-005 -5.41541e-019 0 2.42657e-020 0 0 -0 0.0122698 -0.00324857 -0.000673756 -2.00796e-019 0 -1.94126e-019 0 0 -0 0 0 -0 0 0 -0 3.39842 1.33031 -0.0637918 -5.65207e-008 0.834868 -0.000436188 -3.39935 -2.16518 -0.0642563 -8.89002e-024 -1.18485e-023 -1.48106e-024 -3.39844 1.35642 0.0640283 -3.18788e-007 0.782166 -0.000588827 3.39931 -2.13858 0.0634662 1.1399e-023 0 -0 
0.138797 2.58076 6.40624 -180 -89.9981 -180 -0.0789669 7.72076 -0.142768 -0.14025 15.4417 -0.278534 -0.14025 15.4417 -0.278534 0.000612155 17.9975 26.9971 -0.00209566 4.99621 24.9967 -0.877496 3.44006 12.1284 -76.2471 1.04848 30.1187 33.1196 8.02719 -77.1833 -8.57442 26.3803 -0.362167 5.96354e-016 3.57812e-015 1.59028e-015 -9.93923e-016 -3.13086e-015 3.18055e-015 1.98785e-016 -9.93923e-017 1.59028e-015 5.96354e-016 3.57812e-015 1.59028e-015 -0.0146243 -8.79464e-005 7.78025e-006 1.19271e-015 1.54058e-015 -3.18055e-015 5.96354e-016 3.57812e-015 1.59028e-015 -0.0187492 -0.00117227 5.46991e-005 1.98785e-016 1.31198e-014 -3.18055e-015 5.96354e-016 3.57812e-015 1.59028e-015 -0.012284 -0.00325407 0.000682157 -1.39149e-015 7.45443e-015 1.59028e-015 5.96354e-016 3.57812e-015 1.59028e-015 -9.93923e-016 -3.13086e-015 3.18055e-015 1.98785e-016 -9.93923e-017 1.59028e-015 5.99937 -0.408869 8.43185 54.1949 28.3932 25.2131 42.2928 -1.76329 54.1839 -25.2408 -0.270091 -12.2447 6.36111e-015 -2.78299e-015 -0 3.18055e-015 0 3.18055e-015 0 1.59028e-015 -0 6.36111e-015 -2.78299e-015 -0 0.0150021 -8.92209e-005 9.22522e-007 9.54166e-015 -3.57812e-015 3.18055e-015 6.36111e-015 -2.78299e-015 -0 0.0189939 -0.00119213 -6.30608e-005 -3.18055e-015 -2.18663e-014 7.95139e-015 6.36111e-015 -2.78299e-015 -0 0.0122604 -0.00324819 -0.000678564 -6.36111e-015 1.98785e-015 -6.36111e-015 6.36111e-015 -2.78299e-015 -0 3.18055e-015 0 3.18055e-015 0 1.59028e-015 -0 -25.5306 -41.7019 11.7975 174.353 74.1389 -177.98 -12.356 38.8236 42.2668 2.08596e-007 -6.03361e-007 1.36749e-008 8.17095 4.50819 -25.425 -5.63414 4.31777 0.178544 14.4036 -5.94195 4.73516 3.65776e-007 2.05635e-007 -3.80126e-007 
0.138956 2.58074 6.40625 -180 -89.9981 -180 -0.0751097 7.90391 -0.143591 -0.131908 15.808 -0.280675 -0.131908 15.808 -0.280675 0.120212 17.3116 26.9578 -0.00968028 4.68872 24.9966 -1.36092 3.16887 11.9184 -75.8776 1.20242 30.0328 33.1398 7.9447 -76.9744 -7.7968 26.0684 -0.937642 -5.96354e-016 -4.07509e-015 1.59028e-015 1.98785e-016 -4.12478e-015 3.18055e-015 5.96354e-016 -7.35503e-015 -1.59028e-015 -5.96354e-016 -4.07509e-015 1.59028e-015 -0.014608 -8.76257e-005 6.2097e-007 9.93923e-016 -4.47266e-016 1.59028e-015 -5.96354e-016 -4.07509e-015 1.59028e-015 -0.0187755 -0.00117471 6.26937e-005 -8.82781e-032 -1.59028e-015 -3.18055e-015 -5.96354e-016 -4.07509e-015 1.59028e-015 -0.0122579 -0.0032432 0.000677337 1.98785e-016 1.05356e-014 -4.77083e-015 -5.96354e-016 -4.07509e-015 1.59028e-015 1.98785e-016 -4.12478e-015 3.18055e-015 5.96354e-016 -7.35503e-015 -1.59028e-015 5.60416 -0.972553 8.22795 54.4492 28.5358 25.0995 42.2406 -1.29525 55.143 -25.6153 0.0128798 -11.986 -5.3341e-006 2.13799e-006 6.64615e-007 6.36111e-015 -3.18055e-015 -0 -2.06989e-006 -1.62432e-006 -1.09966e-006 -5.3341e-006 2.13799e-006 6.64615e-007 0.0150122 -8.70727e-005 -1.52356e-006 5.51738e-032 -1.98785e-015 1.59028e-015 -5.3341e-006 2.13799e-006 6.64615e-007 0.0190105 -0.00119033 -6.0311e-005 -3.18055e-015 -2.42517e-014 7.95139e-015 -5.3341e-006 2.13799e-006 6.64615e-007 0.0122669 -0.00324789 -0.000672956 3.18055e-015 -4.77083e-015 -0 -5.3341e-006 2.13799e-006 6.64615e-007 6.36111e-015 -3.18055e-015 -0 -2.06989e-006 -1.62432e-006 -1.09966e-006 -26.6305 -41.856 10.4544 174.353 74.1393 -177.992 -13.7074 38.6377 43.0631 -1.10885e-015 0 -6.58474e-016 8.1709 4.5083 -25.425 -5.63414 4.3175 0.178537 14.4037 -5.94176 4.73514 -2.39365e-006 -1.39268e-007 2.30455e-006 
0.139108 2.58073 6.40625 -180 -89.9981 -180 -0.07124 8.08715 -0.144446 -0.12352 16.1744 -0.282916 -0.12352 16.1744 -0.282915 0.23909 16.6246 26.9202 -0.0172686 4.3812 24.9965 -1.84538 2.89942 11.706 -75.5078 1.35585 29.9459 33.1603 7.86228 -76.7655 -7.02432 25.7494 -1.50716 -7.95139e-016 1.1281e-014 -0 -2.32999e-006 2.06591e-007 5.99497e-007 -3.97569e-016 1.39149e-015 -3.18055e-015 -7.95139e-016 1.1281e-014 -0 -0.0145871 -9.03713e-005 -1.91155e-006 -1.98785e-016 7.10655e-015 -1.59028e-015 -7.95139e-016 1.1281e-014 -0 -0.0187393 -0.0011749 5.54777e-005 2.38542e-015 -2.28602e-015 -1.59028e-015 -7.95139e-016 1.1281e-014 -0 -0.0122571 -0.00324339 0.000680839 -1.17312e-007 6.83652e-008 -8.48473e-007 -7.95139e-016 1.1281e-014 -0 -2.32999e-006 2.06591e-007 5.99497e-007 -3.97569e-016 1.39149e-015 -3.18055e-015 5.20668 -1.53501 8.02 54.7043 28.678 24.9849 42.1806 -0.827602 56.1035 -25.9912 0.294227 -11.7252 -2.05655e-006 -1.60859e-006 -1.18089e-006 1.24719e-006 -2.13266e-006 1.3998e-006 -3.18055e-015 -4.77083e-015 -3.18055e-015 -2.05655e-006 -1.60859e-006 -1.18089e-006 0.0149684 -9.28084e-005 -4.82739e-006 6.36111e-015 5.1684e-015 -0 -2.05655e-006 -1.60859e-006 -1.18089e-006 0.0189721 -0.00119316 -6.55737e-005 -2.05877e-006 -1.60865e-006 -1.18059e-006 -2.05655e-006 -1.60859e-006 -1.18089e-006 0.0122765 -0.00325279 -0.000680509 6.36111e-015 -3.97569e-016 -0 -2.05655e-006 -1.60859e-006 -1.18089e-006 1.24719e-006 -2.13266e-006 1.3998e-006 -3.18055e-015 -4.77083e-015 -3.18055e-015 -27.7389 -41.9904 9.10292 174.352 74.1402 -178.003 -15.053 38.4368 43.852 1.2547e-006 -3.36176e-006 2.67e-007 8.17069 4.50805 -25.425 -5.63414 4.318 0.17858 14.4038 -5.94194 4.73516 2.39365e-006 1.39268e-007 -2.30454e-006 
0.139262 2.58073 6.40625 -180 -89.9981 -180 -0.0673574 8.27036 -0.145334 -0.115084 16.5409 -0.285259 -0.115084 16.5409 -0.285259 0.35704 15.9383 26.8841 -0.0248544 4.07367 24.9963 -2.33086 2.63168 11.4914 -75.1376 1.50874 29.858 33.1811 7.77993 -76.5566 -6.25707 25.4234 -2.0706 1.17405e-007 -6.67017e-008 8.49172e-007 -1.19271e-015 1.01877e-014 -0 -1.17405e-007 6.67017e-008 -8.49172e-007 1.17405e-007 -6.67017e-008 8.49172e-007 -0.0146285 -9.15206e-005 1.1112e-006 -2.18663e-015 2.93207e-015 -0 1.17405e-007 -6.67017e-008 8.49172e-007 -0.0187678 -0.0011756 6.44723e-005 -9.93923e-016 -8.64713e-015 -3.18055e-015 1.17405e-007 -6.67017e-008 8.49172e-007 -0.0122589 -0.00324364 0.000668397 -1.16368e-007 6.7074e-008 -8.4922e-007 1.17405e-007 -6.67017e-008 8.49172e-007 -1.19271e-015 1.01877e-014 -0 -1.17405e-007 6.67017e-008 -8.49172e-007 4.80688 -2.09626 7.80802 54.96 28.8197 24.8695 42.1127 -0.360636 57.0652 -26.3684 0.573914 -11.4627 1.56761e-006 -1.37249e-006 2.28131e-006 -1.56761e-006 1.37249e-006 -2.28131e-006 1.56761e-006 -1.37249e-006 2.28131e-006 1.56761e-006 -1.37249e-006 2.28131e-006 0.014999 -9.25884e-005 -4.826e-006 1.5678e-006 -1.37219e-006 2.28149e-006 1.56761e-006 -1.37249e-006 2.28131e-006 0.0190007 -0.00118849 -6.16958e-005 1.56788e-006 -1.37213e-006 2.28152e-006 1.56761e-006 -1.37249e-006 2.28131e-006 0.012264 -0.00324735 -0.000677819 1.56784e-006 -1.37228e-006 2.2814e-006 1.56761e-006 -1.37249e-006 2.28131e-006 -1.56761e-006 1.37249e-006 -2.28131e-006 1.56761e-006 -1.37249e-006 2.28131e-006 -28.854 -42.1057 7.74471 174.352 74.1407 -178.014 -16.3921 38.2213 44.6329 8.55738e-007 -1.67387e-006 6.39269e-008 8.1707 4.50831 -25.425 -5.63414 4.31745 0.178517 14.4039 -5.94161 4.73513 2.63716e-006 5.54968e-007 3.43757e-007 
